<svg width="41.000000" height="38.082031" viewBox="0 0 41 38.082" fill="none" xmlns="http://www.w3.org/2000/svg" xmlns:xlink="http://www.w3.org/1999/xlink">
	<desc>
			Created with Pixso.
	</desc>
	<defs/>
	<path id="_16_sports_cup1-path" d="M28.18 38.08L12.81 38.08C11.39 38.08 10.25 36.94 10.25 35.54C10.25 34.14 11.39 33 12.81 33L14.44 33C14.44 31.29 15.84 29.89 17.57 29.89L17.93 29.89L17.93 27.67C13.76 26.83 10.33 23.98 8.7 20.19C3.77 19.45 0 15.24 0 10.15L0 9.9C0 7.23 2.18 5.07 4.86 5.07L7.68 5.07C7.68 2.27 9.98 0 12.81 0L28.18 0C31.01 0 33.31 2.27 33.31 5.07L36.13 5.07C38.81 5.07 41 7.23 41 9.9L41 10.15C41 15.24 37.22 19.45 32.29 20.19C30.66 23.98 27.23 26.83 23.06 27.67L23.06 29.89L23.42 29.89C25.15 29.89 26.55 31.29 26.55 33L28.18 33C29.6 33 30.75 34.14 30.75 35.54C30.75 36.94 29.6 38.08 28.18 38.08Z" fill="#333333" fill-opacity="1.000000" fill-rule="evenodd"/>
</svg>
