<svg width="17.030273" height="17.076920" viewBox="0 0 17.0303 17.0769" fill="none" xmlns="http://www.w3.org/2000/svg" xmlns:xlink="http://www.w3.org/1999/xlink">
	<desc>
			Created with Pixso.
	</desc>
	<defs/>
	<path id="Icon" d="M10.82 8.23L16.82 2.19C17.09 1.91 17.09 1.5 16.82 1.22L15.9 0.25C15.62 -0.03 15.2 -0.03 14.93 0.25L8.88 6.3C8.7 6.48 8.42 6.48 8.23 6.3L2.19 0.2C1.91 -0.07 1.5 -0.07 1.22 0.2L0.25 1.17C-0.03 1.45 -0.03 1.86 0.25 2.14L6.29 8.19C6.48 8.37 6.48 8.65 6.29 8.83L0.2 14.93C-0.07 15.2 -0.07 15.62 0.2 15.9L1.17 16.86C1.45 17.14 1.86 17.14 2.14 16.86L8.19 10.82C8.37 10.63 8.65 10.63 8.83 10.82L14.88 16.86C15.16 17.14 15.57 17.14 15.85 16.86L16.82 15.9C17.09 15.62 17.09 15.2 16.82 14.93L10.82 8.88C10.63 8.7 10.63 8.42 10.82 8.23L10.82 8.23Z" fill="#FFFFFF" fill-opacity="1.000000" fill-rule="evenodd"/>
</svg>
