<svg width="58.169922" height="56.000122" viewBox="0 0 58.1699 56.0001" fill="none" xmlns="http://www.w3.org/2000/svg" xmlns:xlink="http://www.w3.org/1999/xlink">
	<desc>
			Created with Pixso.
	</desc>
	<defs/>
	<path id="Shape" d="M36.3574 7C36.3574 7 36.4805 0 21.8145 0L14.543 0C-0.0761719 0 0 7 0 7L0 24.5C0 34.3385 12.584 42.035 18.1777 42C23.7734 42.035 36.3574 34.3385 36.3574 24.5L36.3574 7ZM9.63477 13.1042C12.2266 12.2817 14.75 12.8312 15.2637 14.3292C15.7754 15.8272 14.0898 17.7137 11.4922 18.5362C8.90039 19.3587 6.37695 18.8092 5.86523 17.3112C5.35156 15.8132 7.03906 13.9267 9.63477 13.1042ZM21.0645 14.3292C21.5781 12.8312 24.1016 12.2817 26.6973 13.1042C29.2891 13.9267 30.9805 15.8132 30.4668 17.3112C29.9551 18.8092 27.4316 19.3587 24.8359 18.5362C22.2441 17.7137 20.5527 15.8272 21.0645 14.3292ZM43.627 14L41.7598 14L41.7598 25.3295C41.7598 34.9055 32.0195 42.875 24.2422 45.983C28.1797 51.9715 35.9277 56.0245 39.9922 56C45.5879 56.035 58.1699 48.335 58.1699 38.5L58.1699 21C58.1699 21 58.2949 14 43.627 14ZM26.9805 25.8408C25.8926 28.2208 23.4434 31.5003 18.1777 31.5003C12.9492 31.5003 10.5684 28.1998 9.52539 25.7743C9.4082 25.4838 9.52148 25.1548 9.79492 24.9868C10.0664 24.8223 10.4238 24.8643 10.6445 25.0918C12.0234 25.9108 14.3418 26.6913 18.1777 26.6913C22.082 26.6913 24.457 25.9213 25.8672 25.1268C26.0957 24.9098 26.4531 24.8783 26.7227 25.0498C26.9902 25.2213 27.0957 25.5503 26.9805 25.8408ZM48.5117 27.1041C45.9141 26.2816 43.3926 26.8276 42.8789 28.329C42.3672 29.8271 44.0566 31.7101 46.6484 32.5361C49.2461 33.3586 51.7676 32.8091 52.2812 31.311C52.793 29.8096 51.1035 27.9266 48.5117 27.1041ZM39.9922 38.3951C45.0996 38.3951 47.5605 41.4821 48.6914 43.8411C48.834 44.1561 48.7246 44.5201 48.4336 44.7195C48.1426 44.9156 47.75 44.8911 47.4844 44.66C46.0527 43.9111 43.7227 43.2076 39.9922 43.2076C36.3301 43.2076 34.0508 43.918 32.6523 44.6951C32.4004 44.9401 32 44.975 31.707 44.7825C31.4082 44.59 31.2949 44.2225 31.4336 43.9041C32.5234 41.5031 34.916 38.3951 39.9922 38.3951Z" clip-rule="evenodd" fill="#000000" fill-opacity="1.000000" fill-rule="evenodd"/>
</svg>
