<svg width="20.833332" height="20.833328" viewBox="0 0 20.8333 20.8333" fill="none" xmlns="http://www.w3.org/2000/svg" xmlns:xlink="http://www.w3.org/1999/xlink">
	<desc>
			Created with Pixso.
	</desc>
	<defs/>
	<path id="矢量 15" d="M10.41 0C4.66 0 0 4.66 0 10.41C0 16.16 4.66 20.83 10.41 20.83C16.16 20.83 20.83 16.16 20.83 10.41C20.83 4.66 16.16 0 10.41 0ZM10.41 3.12C12.14 3.12 13.54 4.52 13.54 6.25C13.54 7.97 12.14 9.37 10.41 9.37C8.68 9.37 7.29 7.97 7.29 6.25C7.29 4.52 8.68 3.12 10.41 3.12ZM10.41 17.91C7.81 17.91 5.51 16.58 4.16 14.56C4.19 12.48 8.33 11.35 10.41 11.35C12.48 11.35 16.63 12.48 16.66 14.56C15.32 16.58 13.02 17.91 10.41 17.91Z" fill="#FFFFFF" fill-opacity="1.000000" fill-rule="evenodd"/>
</svg>
