<svg width="52.339844" height="52.500000" viewBox="0 0 52.3398 52.5" fill="none" xmlns="http://www.w3.org/2000/svg" xmlns:xlink="http://www.w3.org/1999/xlink">
	<desc>
			Created with Pixso.
	</desc>
	<defs/>
	<path id="Shape" d="M26.1699 0C25.3398 0 24.5742 0.290497 23.9746 0.773499L1.36523 18.228C0.535156 18.8685 0 19.873 0 21C0 22.932 1.56836 24.5 3.5 24.5L5.16992 24.5L5.16992 45.5C3.23828 45.5 1.66992 47.068 1.66992 49C1.66992 50.932 3.23828 52.5 5.16992 52.5L47.1699 52.5C49.1016 52.5 50.6699 50.932 50.6699 49C50.6699 47.068 49.1016 45.5 47.1699 45.5L47.1699 24.5L48.8398 24.5C50.7715 24.5 52.3398 22.932 52.3398 21C52.3398 19.873 51.8027 18.8685 50.9746 18.228L28.3633 0.773499C27.7656 0.290497 26.998 0 26.1699 0ZM29.6699 14C29.6699 12.068 28.1016 10.5 26.1699 10.5C24.2383 10.5 22.6699 12.068 22.6699 14C22.6699 15.932 24.2383 17.5 26.1699 17.5C28.1016 17.5 29.6699 15.932 29.6699 14ZM15.6699 26.25C15.6699 25.284 14.8848 24.5 13.9199 24.5C12.9531 24.5 12.1699 25.284 12.1699 26.25L12.1699 43.75C12.1699 44.716 12.9531 45.5 13.9199 45.5C14.8848 45.5 15.6699 44.716 15.6699 43.75L15.6699 26.25ZM26.1699 24.5C28.1016 24.5 29.6699 26.068 29.6699 28L29.6699 42C29.6699 43.932 28.1016 45.5 26.1699 45.5C24.2383 45.5 22.6699 43.932 22.6699 42L22.6699 28C22.6699 26.068 24.2383 24.5 26.1699 24.5ZM40.1699 26.25C40.1699 25.284 39.3848 24.5 38.4199 24.5C37.4531 24.5 36.6699 25.284 36.6699 26.25L36.6699 43.75C36.6699 44.716 37.4531 45.5 38.4199 45.5C39.3848 45.5 40.1699 44.716 40.1699 43.75L40.1699 26.25Z" clip-rule="evenodd" fill="#FFFFFF" fill-opacity="1.000000" fill-rule="evenodd"/>
</svg>
