<svg width="13.500000" height="9.000000" viewBox="0 0 13.5 9" fill="none" xmlns="http://www.w3.org/2000/svg" xmlns:xlink="http://www.w3.org/1999/xlink">
	<desc>
			Created with Pixso.
	</desc>
	<defs/>
	<path id="Vector" d="M0 0.75C0 0.34 0.36 0 0.83 0L12.66 0C13.13 0 13.5 0.32 13.5 0.75C13.5 1.17 13.13 1.49 12.66 1.49L0.83 1.49C0.36 1.49 0 1.17 0 0.75ZM0 4.5C0 4.08 0.36 3.74 0.83 3.74L12.66 3.74C13.13 3.74 13.5 4.08 13.5 4.5C13.5 4.91 13.13 5.25 12.66 5.25L0.83 5.25C0.36 5.25 0 4.91 0 4.5ZM0 8.24C0 7.83 0.36 7.5 0.83 7.5L12.66 7.5C13.13 7.5 13.5 7.83 13.5 8.24C13.5 8.65 13.13 9 12.66 9L0.83 9C0.36 9 0 8.65 0 8.24Z" fill="#FFFFFF" fill-opacity="1.000000" fill-rule="evenodd"/>
</svg>
