<svg width="10.000000" height="20.000000" viewBox="0 0 10 20" fill="none" xmlns="http://www.w3.org/2000/svg" xmlns:xlink="http://www.w3.org/1999/xlink">
	<desc>
			Created with Pixso.
	</desc>
	<defs/>
	<path id="Vector" d="M2.9 20L2.9 10.94L0 10.94L0 7.16L2.9 7.16C2.9 6.6 2.9 5.05 2.9 3.39C2.9 1.32 4.9 0 5.81 0C6.54 0 8.9 0 10 0L10 3.39C9.39 3.39 8.07 3.39 7.63 3.39C7.09 3.39 6.54 3.96 6.54 4.52C6.54 4.98 6.54 6.47 6.54 7.16L10 7.16L9.27 10.94L6.54 10.94L6.54 20L2.9 20Z" fill="#FFFFFF" fill-opacity="1.000000" fill-rule="evenodd"/>
</svg>
