<svg width="25.000000" height="25.000000" viewBox="0 0 25 25" fill="none" xmlns="http://www.w3.org/2000/svg" xmlns:xlink="http://www.w3.org/1999/xlink">
	<desc>
			Created with Pixso.
	</desc>
	<defs>
		<clipPath id="clip124_12">
			<rect id="svg" width="25.000000" height="25.000000" fill="white" fill-opacity="0"/>
		</clipPath>
	</defs>
	<g clip-path="url(#clip124_12)">
		<path id="path" d="M8 1.5C4.41 1.5 1.5 4.41 1.5 8L1.5 17C1.5 20.58 4.41 23.5 8 23.5L17 23.5C20.58 23.5 23.5 20.58 23.5 17L23.5 8C23.5 4.41 20.58 1.5 17 1.5L8 1.5ZM8 2.5L17 2.5C20.04 2.5 22.5 4.95 22.5 8L22.5 17C22.5 20.04 20.04 22.5 17 22.5L8 22.5C4.95 22.5 2.5 20.04 2.5 17L2.5 8C2.5 4.95 4.95 2.5 8 2.5ZM18.5 5.5C18.22 5.5 17.98 5.59 17.79 5.79C17.59 5.98 17.5 6.22 17.5 6.5C17.5 6.77 17.59 7.01 17.79 7.2C17.98 7.4 18.22 7.5 18.5 7.5C18.77 7.5 19.01 7.4 19.2 7.2C19.4 7.01 19.5 6.77 19.5 6.5C19.5 6.22 19.4 5.98 19.2 5.79C19.01 5.59 18.77 5.5 18.5 5.5ZM12.5 7C9.46 7 7 9.46 7 12.5C7 15.53 9.46 18 12.5 18C15.53 18 18 15.53 18 12.5C18 9.46 15.53 7 12.5 7ZM12.5 8C14.99 8 17 10 17 12.5C17 14.99 14.99 17 12.5 17C10 17 8 14.99 8 12.5C8 10 10 8 12.5 8Z" fill="#FFFFFF" fill-opacity="1.000000" fill-rule="nonzero"/>
	</g>
</svg>
