<svg width="58.170410" height="56.000000" viewBox="0 0 58.1704 56" fill="none" xmlns="http://www.w3.org/2000/svg" xmlns:xlink="http://www.w3.org/1999/xlink">
	<desc>
			Created with Pixso.
	</desc>
	<defs/>
	<path id="Shape" d="M36.3567 7C36.3567 7 36.4802 0 21.814 0L14.5427 0C-0.076416 0 0 7 0 7L0 24.5C0 34.3384 12.583 42.0349 18.1782 42C23.7737 42.0349 36.3567 34.3384 36.3567 24.5L36.3567 7ZM9.63525 13.1042C12.2275 12.2817 14.7505 12.8313 15.2632 14.3291C15.7759 15.8271 14.0889 17.7136 11.4929 18.5361C8.90088 19.3586 6.37769 18.8091 5.86499 17.3113C5.35229 15.8132 7.03931 13.9268 9.63525 13.1042ZM21.0652 14.3291C21.5779 12.8313 24.1011 12.2817 26.6968 13.1042C29.2891 13.9268 30.9797 15.8132 30.467 17.3113C29.9543 18.8091 27.4312 19.3586 24.8354 18.5361C22.2432 17.7136 20.5525 15.8271 21.0652 14.3291ZM43.6279 14L41.759 14L41.759 25.3296C41.759 34.9055 32.0193 42.875 24.2424 45.9829C28.1799 51.9714 35.9275 56.0244 39.9922 56C45.5874 56.0349 58.1704 48.335 58.1704 38.5L58.1704 21C58.1704 21 58.2942 14 43.6279 14ZM26.98 25.8408C25.8931 28.2207 23.4426 31.5002 18.1782 31.5002C12.9502 31.5002 10.5688 28.1997 9.52539 25.7744C9.40894 25.4839 9.52173 25.1548 9.79443 24.9868C10.0669 24.8223 10.4233 24.8643 10.645 25.0918C12.0229 25.9109 14.3425 26.6914 18.1782 26.6914C22.0828 26.6914 24.457 25.9214 25.8677 25.1267C26.0967 24.9099 26.4529 24.8784 26.7219 25.0498C26.991 25.2212 27.0964 25.5503 26.98 25.8408ZM48.5107 27.104C45.915 26.2815 43.3918 26.8276 42.8792 28.3291C42.3665 29.8271 44.0571 31.71 46.6494 32.5361C49.2451 33.3586 51.7683 32.8091 52.281 31.311C52.7937 29.8096 51.103 27.9265 48.5107 27.104ZM39.9917 38.395C45.0999 38.395 47.5613 41.4819 48.6919 43.8411C48.8337 44.156 48.7246 44.52 48.4338 44.7195C48.1428 44.9155 47.7502 44.8911 47.4849 44.6602C46.0525 43.9111 43.7219 43.2075 39.9917 43.2075C36.3306 43.2075 34.051 43.918 32.6514 44.6951C32.4006 44.9399 32.0005 44.9751 31.7061 44.7825C31.408 44.5901 31.2952 44.2227 31.4333 43.9041C32.5242 41.5032 34.9165 38.395 39.9917 38.395Z" clip-rule="evenodd" fill="#000000" fill-opacity="1.000000" fill-rule="evenodd"/>
</svg>
