<svg width="56.000000" height="56.000000" viewBox="0 0 56 56" fill="none" xmlns="http://www.w3.org/2000/svg" xmlns:xlink="http://www.w3.org/1999/xlink">
	<desc>
			Created with Pixso.
	</desc>
	<defs>
		<clipPath id="clip330_297">
			<rect id="jester-joker-svgrepo-com" width="56.000000" height="56.000000" fill="white" fill-opacity="0"/>
		</clipPath>
	</defs>
	<g clip-path="url(#clip330_297)">
		<path id="path" d="M36.87 39.41C36.75 39.2 36.56 39.04 36.33 38.97L35.28 38.66C32.47 37.82 29.51 39.42 28.67 42.23C28.53 42.7 28.8 43.2 29.27 43.35L30.33 43.66C30.83 43.81 31.34 43.88 31.84 43.88C34.13 43.88 36.25 42.39 36.94 40.09C37 39.86 36.98 39.62 36.87 39.41ZM33.52 41.67C32.69 42.11 31.74 42.21 30.84 41.94L30.76 41.92C31.57 40.59 33.21 39.92 34.76 40.38L34.85 40.41C34.53 40.93 34.07 41.37 33.52 41.67Z" fill="#000000" fill-opacity="1.000000" fill-rule="nonzero"/>
		<path id="path" d="M26.85 42.23C26.01 39.42 23.05 37.82 20.24 38.66L19.19 38.98C18.96 39.04 18.77 39.2 18.65 39.41C18.54 39.62 18.52 39.86 18.58 40.09C19.27 42.39 21.39 43.88 23.68 43.88C24.18 43.88 24.69 43.81 25.19 43.66L26.25 43.35C26.72 43.2 26.99 42.7 26.85 42.23ZM24.68 41.94C23.12 42.41 21.49 41.73 20.67 40.41L20.76 40.38C22.32 39.92 23.95 40.59 24.76 41.92L24.68 41.94Z" fill="#000000" fill-opacity="1.000000" fill-rule="nonzero"/>
		<path id="path" d="M33.65 47.83C33.26 47.53 32.69 47.59 32.39 47.98C31.38 49.27 29.88 49.97 28.16 49.97L27.37 49.97C25.62 49.97 24.1 49.25 23.09 47.93C22.79 47.54 22.23 47.46 21.83 47.77C21.44 48.07 21.36 48.63 21.67 49.02C23 50.77 25.08 51.77 27.37 51.77L28.16 51.77C30.41 51.77 32.47 50.79 33.8 49.09C34.11 48.7 34.04 48.14 33.65 47.83Z" fill="#000000" fill-opacity="1.000000" fill-rule="nonzero"/>
		<path id="path" d="M53.15 22.02C52.83 21.34 52.26 20.82 51.55 20.56C51.07 20.39 50.56 20.35 50.07 20.44C48.99 18.3 47.34 16.5 45.3 15.22C43.18 13.89 40.72 13.2 38.21 13.22C35.96 13.24 33.79 13.84 31.88 14.92C31.13 11.89 29.83 9.37 27.92 7.25C25.87 4.98 23.11 3.14 19.46 1.64C19.35 1.59 19.23 1.56 19.11 1.53C19 0.49 18.31 -0.45 17.26 -0.84C15.79 -1.37 14.16 -0.6 13.63 0.86C13.37 1.58 13.41 2.34 13.73 3.03C14.05 3.71 14.62 4.23 15.33 4.49C15.64 4.61 15.97 4.66 16.29 4.66C16.62 4.66 16.94 4.6 17.25 4.49C17.27 4.51 17.29 4.54 17.3 4.56C19.28 6.98 20.3 10.04 20.18 13.17C20.15 13.72 20.09 14.26 20 14.79C18.19 13.81 16.12 13.24 13.93 13.22C11.42 13.2 8.96 13.89 6.84 15.22C4.78 16.51 3.11 18.35 2.03 20.52C2 20.57 1.98 20.62 1.96 20.67C0.76 20.62 -0.4 21.34 -0.83 22.54C-1.09 23.25 -1.06 24.02 -0.74 24.7C-0.42 25.39 0.15 25.91 0.87 26.17C1.18 26.28 1.51 26.34 1.83 26.34C2.24 26.34 2.65 26.25 3.03 26.07C3.72 25.75 4.24 25.18 4.49 24.47C4.68 23.94 4.71 23.38 4.59 22.87C4.61 22.86 4.62 22.85 4.64 22.84C5.81 22.07 7.18 21.66 8.59 21.66C10.46 21.66 12.04 22.37 13.17 23.72C14.1 24.82 14.67 26.31 14.82 27.97C13.66 28.01 12.73 28.95 12.73 30.12L12.73 33.42C12.73 34.24 13.19 34.95 13.86 35.31L13.86 42.63C13.86 46.27 15.02 49.39 17.21 51.65C19.29 53.81 22.17 54.99 25.32 54.99L26.63 54.99C29.78 54.99 32.66 53.81 34.74 51.65C36.93 49.39 38.09 46.27 38.09 42.63C38.09 42.63 38.09 41.31 38.09 40.81L38.09 38.99C38.09 38.5 37.69 38.09 37.19 38.09C36.7 38.09 36.29 38.5 36.29 38.99C36.29 38.99 36.29 40.32 36.29 40.81L36.29 42.63C36.29 48.85 32.32 53.2 26.63 53.2L25.32 53.2C19.63 53.2 15.65 48.85 15.65 42.63L15.65 35.57L37.23 35.57C38.41 35.57 39.37 34.61 39.37 33.42L39.37 30.12C39.37 28.96 38.45 28.01 37.29 27.97C37.45 26.31 38.02 24.82 38.96 23.72C40.09 22.37 41.68 21.66 43.55 21.66C44.96 21.66 46.33 22.07 47.5 22.84C47.59 22.9 47.68 22.95 47.77 22.99C47.72 23.48 47.81 23.97 48.02 24.43C48.34 25.11 48.91 25.63 49.62 25.89C49.94 26 50.27 26.06 50.59 26.06C51.75 26.06 52.84 25.34 53.25 24.19C53.51 23.48 53.48 22.71 53.15 22.02ZM17.25 2.22C17.04 2.73 16.46 2.99 15.94 2.8C15.52 2.65 15.23 2.23 15.26 1.77C15.28 1.36 15.56 0.99 15.95 0.85C16.78 0.56 17.59 1.41 17.25 2.22ZM2.8 23.85C2.71 24.12 2.33 24.54 1.84 24.54C1.41 24.53 1.01 24.27 0.86 23.87C0.71 23.46 0.83 22.99 1.16 22.71C1.49 22.43 1.98 22.39 2.35 22.61C2.78 22.86 2.97 23.39 2.8 23.85ZM14.54 22.56C13.06 20.8 11.01 19.86 8.59 19.86C6.83 19.86 5.12 20.37 3.66 21.34C3.65 21.33 3.64 21.33 3.64 21.32C4.57 19.44 6.01 17.86 7.79 16.74C9.6 15.61 11.68 15.02 13.82 15.02C13.85 15.02 13.88 15.02 13.92 15.02C20.06 15.07 25.08 20.12 25.18 26.33C25.17 26.39 25.16 26.46 25.16 26.53L25.16 27.97L16.63 27.97C16.46 25.88 15.74 23.98 14.54 22.56ZM37.58 30.12L37.58 33.42C37.58 33.62 37.42 33.77 37.23 33.77L14.88 33.77C14.69 33.77 14.53 33.62 14.53 33.42L14.53 30.12C14.53 29.93 14.69 29.77 14.88 29.77L15.76 29.77L26.06 29.77L26.08 29.77L36.35 29.77L37.23 29.77C37.42 29.77 37.58 29.93 37.58 30.12ZM48.48 21.33C47.01 20.37 45.31 19.86 43.55 19.86C41.14 19.86 39.07 20.8 37.59 22.56C36.38 23.98 35.65 25.88 35.49 27.97L26.98 27.97L26.98 26.53C26.98 22.16 24.87 18.26 21.62 15.83C21.82 15 21.93 14.13 21.97 13.24C22.12 9.67 20.95 6.19 18.7 3.42C18.68 3.4 18.67 3.39 18.67 3.36C18.69 3.34 18.7 3.32 18.71 3.31C18.73 3.28 18.75 3.29 18.78 3.3C25.42 6.04 28.99 9.97 30.29 15.99C29.46 16.64 28.7 17.39 28.03 18.24C27.73 18.63 27.79 19.19 28.18 19.5C28.57 19.81 29.14 19.74 29.44 19.35C31.6 16.63 34.8 15.05 38.22 15.02C40.4 14.99 42.52 15.59 44.35 16.74C46.13 17.86 47.56 19.44 48.5 21.31C48.49 21.32 48.49 21.33 48.48 21.33ZM51.56 23.58C51.37 24.12 50.9 24.33 50.42 24.25C49.88 24.16 49.49 23.64 49.56 23.1C49.64 22.48 50.28 22.05 50.88 22.23C51.45 22.4 51.76 23.02 51.56 23.58Z" fill="#000000" fill-opacity="1.000000" fill-rule="nonzero"/>
		<circle id="circle" cx="18.870361" cy="32.775879" r="0.874453" fill="#000000" fill-opacity="1.000000"/>
		<circle id="circle" cx="22.384766" cy="32.775879" r="0.874453" fill="#000000" fill-opacity="1.000000"/>
		<circle id="circle" cx="25.900391" cy="32.775879" r="0.874453" fill="#000000" fill-opacity="1.000000"/>
		<circle id="circle" cx="29.416016" cy="32.775879" r="0.874453" fill="#000000" fill-opacity="1.000000"/>
		<circle id="circle" cx="32.930420" cy="32.775879" r="0.874453" fill="#000000" fill-opacity="1.000000"/>
		<circle id="circle" cx="36.446045" cy="32.775879" r="0.874453" fill="#000000" fill-opacity="1.000000"/>
	</g>
</svg>
