<svg width="56.000000" height="56.000000" viewBox="0 0 56 56" fill="none" xmlns="http://www.w3.org/2000/svg" xmlns:xlink="http://www.w3.org/1999/xlink">
	<desc>
			Created with Pixso.
	</desc>
	<defs>
		<clipPath id="clip330_342">
			<rect id="conversation-svgrepo-com" width="56.000000" height="56.000000" fill="white" fill-opacity="0"/>
		</clipPath>
	</defs>
	<g clip-path="url(#clip330_342)">
		<path id="path" d="M21.72 32.95C23.97 31.23 25.45 28.51 25.45 25.46C25.45 20.27 21.24 16.05 16.05 16.05C10.86 16.05 6.64 20.27 6.64 25.46C6.64 28.51 8.05 31.23 10.31 32.95C6.55 34.98 3.94 38.96 3.94 43.53L3.94 53.08C3.94 54.75 5.41 56 7.08 56L25.03 56C26.71 56 28 54.75 28 53.08L28 43.52C28 38.96 25.47 34.98 21.72 32.95Z" fill="#000000" fill-opacity="1.000000" fill-rule="nonzero"/>
		<path id="path" d="M45.78 16.9C48.04 15.18 49.52 12.46 49.52 9.41C49.52 4.22 45.31 0 40.12 0C34.93 0 30.71 4.22 30.71 9.41C30.71 12.46 32.11 15.18 34.37 16.9C30.61 18.93 28 22.91 28 27.47L28 37.03C28 38.7 29.48 39.96 31.16 39.96L49.11 39.96C50.78 39.96 52.05 38.7 52.05 37.03L52.05 27.47C52.05 22.91 49.54 18.93 45.78 16.9ZM40.13 6.07C41.97 6.07 43.47 7.57 43.47 9.41C43.47 11.25 41.97 12.75 40.13 12.75C38.29 12.75 36.79 11.25 36.79 9.41C36.79 7.57 38.29 6.07 40.13 6.07ZM45.97 33.89L34.07 33.89L34.07 27.47C34.07 24.2 36.75 21.54 40.02 21.54C43.3 21.54 45.97 24.2 45.97 27.47L45.97 33.89Z" fill="#000000" fill-opacity="1.000000" fill-rule="nonzero"/>
	</g>
</svg>
