<svg width="20.191895" height="20.000000" viewBox="0 0 20.1919 20" fill="none" xmlns="http://www.w3.org/2000/svg" xmlns:xlink="http://www.w3.org/1999/xlink">
	<desc>
			Created with Pixso.
	</desc>
	<defs/>
	<path id="矢量 45" d="M18 4.75L16 6.75L16 2L7 2L7 7L2 7L2 18L16 18L16 15.24L18 13.24L18 19C17.99 19.27 17.89 19.52 17.7 19.7C17.52 19.89 17.27 20 17 20L0.99 20C0.86 19.99 0.73 19.97 0.61 19.92C0.48 19.87 0.38 19.79 0.28 19.7C0.19 19.6 0.12 19.49 0.07 19.37C0.02 19.25 -0.01 19.12 0 18.99L0 6L6 0L16.99 0C17.54 0 18 0.45 18 0.99L18 4.75ZM18.77 6.8L20.19 8.22L12.41 16L10.99 15.99L11 14.58L18.77 6.8L18.77 6.8Z" fill="#444444" fill-opacity="1.000000" fill-rule="evenodd"/>
</svg>
