<svg width="9.591797" height="5.534340" viewBox="0 0 9.5918 5.53434" fill="none" xmlns="http://www.w3.org/2000/svg" xmlns:xlink="http://www.w3.org/1999/xlink">
	<desc>
			Created with Pixso.
	</desc>
	<defs/>
	<path id="eye-open" d="M9.58008 2.745L9.58008 2.70619C9.56836 2.62859 9.53125 2.56207 9.47852 2.50663C9.17188 2.13522 8.80664 1.80816 8.43555 1.50881C7.63867 0.860229 6.72656 0.316971 5.72656 0.100777C5.14453 -0.0267258 4.55859 -0.0322647 3.98242 0.0786057C3.44336 0.178383 2.93359 0.377953 2.45508 0.627403C1.70508 1.02099 1.01562 1.5587 0.416016 2.16293C0.308594 2.2738 0.201172 2.39021 0.0996094 2.51217C-0.0332031 2.67294 -0.0332031 2.86695 0.0996094 3.02771C0.404297 3.39912 0.769531 3.72619 1.14258 4.02553C1.93945 4.67411 2.84961 5.21737 3.84961 5.43356C4.43164 5.56107 5.01953 5.5666 5.60742 5.45573C6.14062 5.35596 6.64844 5.15639 7.13477 4.90694C7.88477 4.51335 8.57227 3.97564 9.16602 3.37141C9.27344 3.26054 9.38867 3.14413 9.49023 3.02217C9.54297 2.96674 9.58008 2.89467 9.5918 2.8226L9.5918 2.76717C9.58008 2.75608 9.58008 2.75054 9.58008 2.745ZM2.99219 2.76164C2.99219 3.68185 3.79492 4.42467 4.78906 4.42467C5.78516 4.42467 6.58789 3.68185 6.58789 2.76164C6.58789 1.84143 5.78516 1.09861 4.78906 1.09861C3.79492 1.09861 2.99219 1.84143 2.99219 2.76164ZM4.80469 2.20729C4.47656 2.20729 4.20703 2.45675 4.20703 2.76163C4.20703 3.06652 4.47656 3.31598 4.80469 3.31598C5.13477 3.31598 5.4043 3.06652 5.4043 2.76163C5.4043 2.45675 5.12891 2.20729 4.80469 2.20729Z" clip-rule="evenodd" fill="#66788A" fill-opacity="1.000000" fill-rule="evenodd"/>
</svg>
