<svg width="9.599609" height="7.002235" viewBox="0 0 9.59961 7.00224" fill="none" xmlns="http://www.w3.org/2000/svg" xmlns:xlink="http://www.w3.org/1999/xlink">
	<desc>
			Created with Pixso.
	</desc>
	<defs/>
	<path id="eye-off" d="M9.3418 1.05034C9.49219 0.945305 9.59961 0.781914 9.59961 0.583519C9.59961 0.262581 9.33008 0 9 0C8.86719 0 8.75391 0.0466843 8.6582 0.116707L8.65234 0.11087L7.04883 1.22539C6.63477 1.00365 6.20312 0.822762 5.74805 0.717728C5.17188 0.583519 4.58398 0.577682 4.00195 0.688553C3.47461 0.793587 2.95703 1.00365 2.48438 1.26624C1.73438 1.6747 1.05078 2.24072 0.455078 2.87092C0.347656 2.98762 0.234375 3.11016 0.138672 3.2327C0 3.40192 0 3.60032 0.132812 3.76954C0.4375 4.15466 0.798828 4.49894 1.16992 4.81404C1.27734 4.9074 1.39844 4.98326 1.50586 5.07079L0.251953 5.94607L0.257812 5.9519C0.107422 6.05693 0 6.22032 0 6.41872C0 6.73965 0.269531 7.00224 0.599609 7.00224C0.732422 7.00224 0.845703 6.95555 0.941406 6.88553L0.947266 6.89137L9.34766 1.05617L9.3418 1.05034ZM2.99414 3.50123C2.99414 3.66461 3.01953 3.81633 3.06055 3.96805L5.78516 2.07161C5.50195 1.88488 5.16016 1.76234 4.78906 1.76234C3.79883 1.76234 2.99414 2.54426 2.99414 3.50123ZM9.5957 3.44282L9.5957 3.48367C9.5957 3.48949 9.5957 3.49533 9.58984 3.507L9.58984 3.56535C9.57812 3.64705 9.54297 3.71707 9.48828 3.77542C9.39258 3.89796 9.27734 4.0205 9.16992 4.13721C8.57617 4.7674 7.89258 5.33342 7.14258 5.74188C6.66797 5.99863 6.15234 6.21453 5.625 6.31374C5.03711 6.4246 4.45508 6.41877 3.87305 6.28455C3.58984 6.22037 3.31445 6.12117 3.05078 6.0103L4.29297 5.15253C4.46094 5.20505 4.63477 5.24006 4.82031 5.24006C5.79297 5.24006 6.58398 4.48732 6.60742 3.54785L8.50391 2.2291C8.85156 2.53252 9.19922 2.86514 9.49414 3.23275C9.54883 3.2911 9.58398 3.36112 9.5957 3.44282Z" clip-rule="evenodd" fill="#66788A" fill-opacity="1.000000" fill-rule="evenodd"/>
</svg>
