<svg width="33.000000" height="33.000000" viewBox="0 0 33 33" fill="none" xmlns="http://www.w3.org/2000/svg" xmlns:xlink="http://www.w3.org/1999/xlink">
	<desc>
			Created with Pixso.
	</desc>
	<defs/>
	<circle id="Эллипс 1" cx="16.500000" cy="16.500000" r="16.500000" fill="#FFFFFF" fill-opacity="1.000000"/>
	<path id="Vector" d="M13.9 26.85L13.9 16.5L11 16.5L11 12.19L13.9 12.19C13.9 11.54 13.9 9.77 13.9 7.88C13.9 5.5 15.9 4 16.81 4C17.54 4 19.9 4 21 4L21 7.88C20.39 7.88 19.07 7.88 18.63 7.88C18.09 7.88 17.54 8.52 17.54 9.17C17.54 9.69 17.54 11.4 17.54 12.19L21 12.19L20.27 16.5L17.54 16.5L17.54 26.85L13.9 26.85Z" fill="#771139" fill-opacity="1.000000" fill-rule="evenodd"/>
</svg>
