<svg width="33.000000" height="33.000000" viewBox="0 0 33 33" fill="none" xmlns="http://www.w3.org/2000/svg" xmlns:xlink="http://www.w3.org/1999/xlink">
	<desc>
			Created with Pixso.
	</desc>
	<defs/>
	<circle id="Эллипс 1" cx="16.500000" cy="16.500000" r="16.500000" fill="#FFFFFF" fill-opacity="1.000000"/>
	<path id="path" d="M12 5.5C8.41 5.5 5.5 8.42 5.5 12.02L5.5 21.05C5.5 24.64 8.41 27.57 12 27.57L21 27.57C24.58 27.57 27.5 24.64 27.5 21.05L27.5 12.02C27.5 8.42 24.58 5.5 21 5.5L12 5.5ZM12 6.5L21 6.5C24.04 6.5 26.5 8.97 26.5 12.02L26.5 21.05C26.5 24.1 24.04 26.56 21 26.56L12 26.56C8.95 26.56 6.5 24.1 6.5 21.05L6.5 12.02C6.5 8.97 8.95 6.5 12 6.5ZM22.5 9.51C22.22 9.51 21.98 9.61 21.79 9.81C21.59 10 21.5 10.24 21.5 10.51C21.5 10.79 21.59 11.03 21.79 11.22C21.98 11.42 22.22 11.52 22.5 11.52C22.77 11.52 23.01 11.42 23.2 11.22C23.4 11.03 23.5 10.79 23.5 10.51C23.5 10.24 23.4 10 23.2 9.81C23.01 9.61 22.77 9.51 22.5 9.51ZM16.5 11.02C13.46 11.02 11 13.49 11 16.53C11 19.57 13.46 22.05 16.5 22.05C19.53 22.05 22 19.57 22 16.53C22 13.49 19.53 11.02 16.5 11.02ZM16.5 12.02C18.99 12.02 21 14.03 21 16.53C21 19.03 18.99 21.05 16.5 21.05C14 21.05 12 19.03 12 16.53C12 14.03 14 12.02 16.5 12.02Z" fill="#771139" fill-opacity="1.000000" fill-rule="nonzero"/>
</svg>
