<svg width="16.000000" height="21.000000" viewBox="0 0 16 21" fill="none" xmlns="http://www.w3.org/2000/svg" xmlns:xlink="http://www.w3.org/1999/xlink">
	<desc>
			Created with Pixso.
	</desc>
	<defs/>
	<path id="矢量 182" d="M14 7L13 7L13 5C13 2.23 10.76 0 8 0C5.23 0 3 2.23 3 5L3 7L2 7C0.89 7 0 7.9 0 9L0 19C0 20.1 0.89 21 2 21L14 21C15.1 21 16 20.1 16 19L16 9C16 7.9 15.1 7 14 7ZM8 16C6.89 16 6 15.1 6 14C6 12.9 6.89 12 8 12C9.1 12 10 12.9 10 14C10 15.1 9.1 16 8 16ZM11.1 7L4.89 7L4.89 5C4.89 3.29 6.29 1.9 8 1.9C9.7 1.9 11.1 3.29 11.1 5L11.1 7Z" fill="#FFFFFF" fill-opacity="1.000000" fill-rule="evenodd"/>
</svg>
